<svg width="980" height="100" viewBox="0 0 980 100" fill="none" xmlns="http://www.w3.org/2000/svg">
<path d="M0 0L32.6667 7.1C65.3333 14.2 130.667 28.4 196 28.4C261.333 28.4 326.667 14.2 392 11.8481C457.333 9.31875 522.667 19.0812 588 18.9481C653.333 19.0812 718.667 9.31875 784 4.74812C849.333 -1.43051e-06 914.667 0 947.333 0H980V99.4H947.333C914.667 99.4 849.333 99.4 784 99.4C718.667 99.4 653.333 99.4 588 99.4C522.667 99.4 457.333 99.4 392 99.4C326.667 99.4 261.333 99.4 196 99.4C130.667 99.4 65.3333 99.4 32.6667 99.4H0V0Z" fill="#D4C0DE"/>
</svg>
